
<svg width="170" height="54" viewBox="0 0 170 54" fill="none" xmlns="http://www.w3.org/2000/svg">
<g style="mix-blend-mode:multiply">
<path d="M0.128951 27.2682C0.116895 24.4522 0.682409 22.0018 1.82549 19.9168C3.00044 17.7998 4.62551 16.1768 6.70069 15.0479C8.80788 13.9189 11.2055 13.3486 13.8934 13.3371C17.4134 13.322 20.3776 14.3014 22.7861 16.2751C25.2266 18.2486 26.7743 20.994 27.4294 24.5113L16.1495 24.5596C15.7275 23.1534 14.9085 22.4529 13.6925 22.4581C12.8285 22.4618 12.1422 22.8647 11.6336 23.6669C11.1571 24.4689 10.9221 25.6539 10.9289 27.2219C10.9356 28.7899 11.1806 29.9729 11.6641 30.7708C12.1795 31.5686 12.8692 31.9657 13.7332 31.962C14.9492 31.9568 15.7621 31.2493 16.1721 29.8395L27.452 29.7912C26.8271 33.3139 25.3029 36.0725 22.8794 38.0669C20.4879 40.0611 17.5322 41.0658 14.0122 41.0809C11.3242 41.0924 8.92187 40.5427 6.80509 39.4317C4.72031 38.3206 3.08148 36.7276 1.88858 34.6527C0.727552 32.5457 0.141008 30.0841 0.128951 27.2682ZM43.7419 40.9536C41.022 40.9652 38.5716 40.4157 36.3908 39.305C34.21 38.1944 32.4912 36.6017 31.2343 34.5271C30.0093 32.4203 29.3907 29.9589 29.3787 27.1429C29.3666 24.327 29.9641 21.8764 31.1712 19.7912C32.4102 17.6739 34.1152 16.0506 36.2864 14.9213C38.4576 13.792 40.9032 13.2215 43.6232 13.2098C46.3431 13.1982 48.7935 13.7477 50.9743 14.8584C53.1551 15.969 54.858 17.5778 56.083 19.6845C57.3399 21.7592 57.9744 24.2045 57.9864 27.0205C57.9985 29.8364 57.385 32.3031 56.1461 34.4204C54.939 36.5056 53.2499 38.1128 51.0787 39.2421C48.9075 40.3715 46.4619 40.9419 43.7419 40.9536ZM43.7025 31.7377C44.6945 31.7334 45.5248 31.3459 46.1935 30.575C46.8621 29.7721 47.1931 28.6027 47.1865 27.0667C47.1799 25.5307 46.839 24.3802 46.1637 23.615C45.4883 22.8179 44.6546 22.4215 43.6626 22.4257C42.6706 22.43 41.8403 22.8336 41.1718 23.6364C40.5031 24.4073 40.172 25.5607 40.1786 27.0967C40.1852 28.6327 40.5102 29.7993 41.1536 30.5966C41.8289 31.3617 42.6785 31.742 43.7025 31.7377ZM59.894 27.0123C59.8818 24.1643 60.3513 21.6983 61.3024 19.6142C62.2853 17.498 63.6225 15.8922 65.3138 14.797C67.005 13.6697 68.9066 13.1016 71.0185 13.0925C72.7785 13.085 74.2841 13.4466 75.5352 14.1772C76.8182 14.8757 77.7984 15.8475 78.4757 17.0926L78.4237 4.94876L89.0796 4.90314L89.2317 40.4228L78.5758 40.4684L78.56 36.7725C77.8933 38.0233 76.9216 39.0195 75.6448 39.761C74.3998 40.4703 72.8973 40.8288 71.1373 40.8363C69.0253 40.8453 67.119 40.3095 65.4184 39.2288C63.7176 38.116 62.3668 36.5218 61.3659 34.4461C60.3968 32.3382 59.9062 29.8603 59.894 27.0123ZM78.5659 26.9324C78.5597 25.4924 78.1869 24.374 77.4475 23.5771C76.7081 22.7803 75.7624 22.3843 74.6104 22.3892C73.4584 22.3942 72.5161 22.7982 71.7835 23.6014C71.051 24.4045 70.6878 25.5261 70.6939 26.9661C70.7001 28.406 71.0729 29.5245 71.8123 30.3213C72.5517 31.1181 73.4974 31.5141 74.6494 31.5092C75.8014 31.5042 76.7437 31.1002 77.4763 30.297C78.2088 29.4939 78.572 28.3723 78.5659 26.9324ZM99.2675 11.1476C97.4115 11.1555 95.9214 10.6659 94.7971 9.6787C93.6729 8.69151 93.1076 7.44592 93.1011 5.94193C93.0945 4.40594 93.6491 3.13956 94.7649 2.14277C95.8805 1.11398 97.3663 0.595619 99.2223 0.587672C101.046 0.579863 102.52 1.08556 103.645 2.10475C104.769 3.09195 105.334 4.35354 105.341 5.88952C105.347 7.39351 104.793 8.6439 103.677 9.64068C102.561 10.6375 101.091 11.1398 99.2675 11.1476ZM104.557 13.285L104.673 40.3567L94.0167 40.4023L93.9008 13.3306L104.557 13.285ZM119.112 12.8866C120.872 12.8791 122.393 13.2406 123.677 13.9711C124.96 14.6696 125.94 15.6414 126.617 16.8865L126.601 13.1906L137.209 13.1452L137.323 39.7369C137.334 42.2649 136.88 44.5709 135.961 46.6548C135.041 48.7388 133.545 50.4092 131.47 51.6661C129.427 52.9228 126.79 53.5581 123.558 53.572C119.206 53.5906 115.746 52.5814 113.177 50.5444C110.64 48.5392 109.189 45.7934 108.822 42.307L119.286 42.2622C119.58 43.6689 120.735 44.368 122.751 44.3593C123.999 44.354 124.973 44.0298 125.674 43.3868C126.376 42.7438 126.723 41.5423 126.715 39.7823L126.701 36.5664C126.035 37.8172 125.063 38.8134 123.786 39.5549C122.509 40.2643 120.991 40.6228 119.231 40.6304C117.119 40.6394 115.212 40.1036 113.512 39.0228C111.811 37.9101 110.46 36.3159 109.459 34.2402C108.49 32.1323 108 29.6544 107.987 26.8064C107.975 23.9584 108.445 21.4924 109.396 19.4083C110.379 17.2921 111.716 15.6863 113.407 14.5911C115.098 13.4638 117 12.8957 119.112 12.8866ZM126.659 26.7264C126.653 25.2865 126.28 24.168 125.541 23.3712C124.801 22.5744 123.856 22.1784 122.704 22.1833C121.552 22.1883 120.609 22.5923 119.877 23.3955C119.144 24.1986 118.781 25.3202 118.787 26.7601C118.793 28.2001 119.166 29.3185 119.906 30.1154C120.645 30.9122 121.591 31.3082 122.743 31.3033C123.895 31.2983 124.837 30.8943 125.57 30.0911C126.302 29.288 126.665 28.1664 126.659 26.7264ZM154.975 40.4773C152.255 40.489 149.805 39.9395 147.624 38.8288C145.443 37.7181 143.725 36.1255 142.468 34.0508C141.243 31.9441 140.624 29.4827 140.612 26.6667C140.6 23.8507 141.197 21.4002 142.405 19.315C143.644 17.1976 145.349 15.5743 147.52 14.445C149.691 13.3157 152.137 12.7452 154.857 12.7336C157.576 12.7219 160.027 13.2715 162.208 14.3821C164.388 15.4928 166.091 17.1015 167.316 19.2083C168.573 21.2829 169.208 23.7283 169.22 26.5442C169.232 29.3602 168.618 31.8268 167.379 33.9442C166.172 36.0294 164.483 37.6366 162.312 38.7659C160.141 39.8952 157.695 40.4657 154.975 40.4773ZM154.936 31.2614C155.928 31.2572 156.758 30.8696 157.427 30.0987C158.095 29.2959 158.426 28.1265 158.42 26.5905C158.413 25.0545 158.072 23.9039 157.397 23.1388C156.722 22.3417 155.888 21.9453 154.896 21.9495C153.904 21.9538 153.074 22.3573 152.405 23.1602C151.736 23.9311 151.405 25.0845 151.412 26.6205C151.419 28.1565 151.744 29.3231 152.387 30.1203C153.062 30.8854 153.912 31.2658 154.936 31.2614Z" fill="#F3C318"/>
</g>
</svg>
